<svg width="300" height="300" viewBox="0 0 300 300" fill="none" xmlns="http://www.w3.org/2000/svg">
<rect width="300" height="300" rx="10" fill="#1A3A2E"/>
<path d="M112.5 50.0001C70.8333 50.0001 45.8333 81.2501 45.8333 116.667C45.8333 170.833 112.5 250 112.5 250C112.5 250 179.167 170.833 179.167 116.667C179.167 81.2501 154.167 50.0001 112.5 50.0001Z" fill="#F7F5F0"/>
<path d="M112.5 141.667C127.458 141.667 139.583 129.542 139.583 114.584C139.583 99.6264 127.458 87.5008 112.5 87.5008C97.5424 87.5008 85.4168 99.6264 85.4168 114.584C85.4168 129.542 97.5424 141.667 112.5 141.667Z" fill="#1A3A2E"/>
<path opacity="0.5" d="M187.5 50.0002C145.834 50.0002 120.834 81.2502 120.834 116.667C120.834 170.834 187.5 250 187.5 250C187.5 250 254.167 170.834 254.167 116.667C254.167 81.2502 229.167 50.0002 187.5 50.0002Z" fill="#F7F5F0"/>
<path d="M187.5 141.667C202.458 141.667 214.584 129.542 214.584 114.584C214.584 99.6264 202.458 87.5008 187.5 87.5008C172.543 87.5008 160.417 99.6264 160.417 114.584C160.417 129.542 172.543 141.667 187.5 141.667Z" fill="#1A3A2E"/>
</svg>
