<svg width="132" height="31" viewBox="0 0 132 31" fill="none" xmlns="http://www.w3.org/2000/svg">
<path d="M10.24 0C3.84 0 0 4.8 0 10.24C0 18.56 10.24 30.72 10.24 30.72C10.24 30.72 20.48 18.56 20.48 10.24C20.48 4.8 16.64 0 10.24 0Z" fill="#FFFCEF"/>
<path d="M10.2401 14.0798C12.5376 14.0798 14.4001 12.2173 14.4001 9.91977C14.4001 7.62226 12.5376 5.75977 10.2401 5.75977C7.94257 5.75977 6.08008 7.62226 6.08008 9.91977C6.08008 12.2173 7.94257 14.0798 10.2401 14.0798Z" fill="#1A3A2E"/>
<path opacity="0.38" d="M21.76 0C15.36 0 11.52 4.8 11.52 10.24C11.52 18.56 21.76 30.72 21.76 30.72C21.76 30.72 32 18.56 32 10.24C32 4.8 28.16 0 21.76 0Z" fill="#FFFCEF"/>
<path d="M21.7601 14.0798C24.0576 14.0798 25.9201 12.2173 25.9201 9.91977C25.9201 7.62226 24.0576 5.75977 21.7601 5.75977C19.4626 5.75977 17.6001 7.62226 17.6001 9.91977C17.6001 12.2173 19.4626 14.0798 21.7601 14.0798Z" fill="#1A3A2E"/>
<path d="M55.14 9.70035V10.1004C54.8867 10.1537 54.6067 10.307 54.3 10.5604C53.9933 10.8004 53.7467 11.227 53.56 11.8404L49.78 23.9604C49.7533 23.9604 49.7267 23.9604 49.7 23.9604C49.6733 23.9604 49.6467 23.9604 49.62 23.9604C49.5933 23.9604 49.5667 23.9604 49.54 23.9604C49.5133 23.9604 49.4867 23.9604 49.46 23.9604L45.22 11.3804C45.0467 10.8604 44.8533 10.5204 44.64 10.3604C44.4267 10.2004 44.2267 10.1137 44.04 10.1004V9.70035C44.28 9.71368 44.58 9.72702 44.94 9.74035C45.3 9.75368 45.6467 9.76035 45.98 9.76035C46.5 9.76035 46.9867 9.75368 47.44 9.74035C47.8933 9.72702 48.26 9.71368 48.54 9.70035V10.1004C48.14 10.1137 47.82 10.1537 47.58 10.2204C47.3533 10.287 47.22 10.4337 47.18 10.6604C47.1533 10.887 47.22 11.2604 47.38 11.7804L50.36 21.0004L50.08 21.2404L52.72 12.9404C52.96 12.207 53.0667 11.6404 53.04 11.2404C53.0267 10.827 52.88 10.5404 52.6 10.3804C52.32 10.207 51.9 10.1137 51.34 10.1004V9.70035C51.7267 9.71368 52.12 9.72702 52.52 9.74035C52.92 9.75368 53.2933 9.76035 53.64 9.76035C53.9867 9.76035 54.2733 9.75368 54.5 9.74035C54.7267 9.72702 54.94 9.71368 55.14 9.70035ZM41.16 9.70035V10.1004C40.8133 10.127 40.56 10.1937 40.4 10.3004C40.2533 10.407 40.18 10.5804 40.18 10.8204C40.1933 11.047 40.2667 11.367 40.4 11.7804L43.5 21.2404L43 21.7404L45.8 12.8004L46.1 13.2804L42.8 23.9604C42.7733 23.9604 42.7467 23.9604 42.72 23.9604C42.6933 23.9604 42.6667 23.9604 42.64 23.9604C42.6133 23.9604 42.5867 23.9604 42.56 23.9604C42.5333 23.9604 42.5067 23.9604 42.48 23.9604L38.24 11.3804C38.0667 10.8604 37.8467 10.5204 37.58 10.3604C37.3133 10.2004 37.0733 10.1137 36.86 10.1004V9.70035C37.1267 9.71368 37.4533 9.72702 37.84 9.74035C38.24 9.75368 38.6267 9.76035 39 9.76035C39.44 9.76035 39.8467 9.75368 40.22 9.74035C40.6067 9.72702 40.92 9.71368 41.16 9.70035ZM59.1588 13.2804C60.3321 13.2804 61.2454 13.6404 61.8988 14.3604C62.5654 15.067 62.8988 16.1737 62.8988 17.6804H55.8388L55.8188 17.3004H60.9788C61.0054 16.647 60.9521 16.047 60.8188 15.5004C60.6854 14.9404 60.4721 14.4937 60.1788 14.1604C59.8988 13.827 59.5321 13.6604 59.0788 13.6604C58.4654 13.6604 57.9188 13.967 57.4388 14.5804C56.9721 15.1937 56.6921 16.167 56.5988 17.5004L56.6587 17.5804C56.6321 17.7804 56.6121 18.0004 56.5988 18.2404C56.5854 18.4804 56.5788 18.7204 56.5788 18.9604C56.5788 19.867 56.7254 20.647 57.0188 21.3004C57.3121 21.9537 57.6921 22.4537 58.1588 22.8004C58.6388 23.1337 59.1321 23.3004 59.6388 23.3004C60.0388 23.3004 60.4188 23.2404 60.7788 23.1204C61.1388 22.987 61.4721 22.7737 61.7788 22.4804C62.0854 22.187 62.3521 21.7937 62.5788 21.3004L62.9788 21.4604C62.8321 21.9004 62.5921 22.327 62.2588 22.7404C61.9254 23.1537 61.5054 23.4937 60.9988 23.7604C60.4921 24.0137 59.9054 24.1404 59.2388 24.1404C58.2788 24.1404 57.4521 23.9204 56.7588 23.4804C56.0788 23.0404 55.5521 22.4337 55.1788 21.6604C54.8188 20.8737 54.6388 19.9737 54.6388 18.9604C54.6388 17.787 54.8254 16.7804 55.1988 15.9404C55.5721 15.087 56.0988 14.4337 56.7788 13.9804C57.4588 13.5137 58.2521 13.2804 59.1588 13.2804ZM72.8992 23.8604V23.4604C73.3526 23.4337 73.6926 23.3804 73.9192 23.3004C74.1592 23.2204 74.3192 23.0604 74.3992 22.8204C74.4792 22.5804 74.5192 22.2204 74.5192 21.7404V11.8204C74.5192 11.327 74.4792 10.967 74.3992 10.7404C74.3192 10.5004 74.1592 10.3404 73.9192 10.2604C73.6926 10.167 73.3526 10.1137 72.8992 10.1004V9.70035C73.2059 9.71368 73.5926 9.72702 74.0592 9.74035C74.5259 9.75368 74.9859 9.76035 75.4392 9.76035C75.9592 9.76035 76.4459 9.75368 76.8992 9.74035C77.3526 9.72702 77.7192 9.71368 77.9992 9.70035V10.1004C77.5459 10.1137 77.1992 10.167 76.9592 10.2604C76.7326 10.3404 76.5792 10.5004 76.4992 10.7404C76.4192 10.967 76.3792 11.327 76.3792 11.8204V21.7404C76.3792 22.2204 76.4192 22.5804 76.4992 22.8204C76.5792 23.0604 76.7326 23.2204 76.9592 23.3004C77.1992 23.3804 77.5459 23.4337 77.9992 23.4604V23.8604C77.7192 23.8337 77.3526 23.8204 76.8992 23.8204C76.4459 23.807 75.9592 23.8004 75.4392 23.8004C74.9859 23.8004 74.5259 23.807 74.0592 23.8204C73.5926 23.8204 73.2059 23.8337 72.8992 23.8604ZM64.5392 23.8604V23.4604C64.9926 23.4337 65.3326 23.3804 65.5592 23.3004C65.7992 23.2204 65.9592 23.0604 66.0392 22.8204C66.1192 22.5804 66.1592 22.2204 66.1592 21.7404V11.8204C66.1592 11.327 66.1192 10.967 66.0392 10.7404C65.9592 10.5004 65.7992 10.3404 65.5592 10.2604C65.3326 10.167 64.9926 10.1137 64.5392 10.1004V9.70035C64.8192 9.71368 65.1859 9.72702 65.6392 9.74035C66.0926 9.75368 66.5792 9.76035 67.0992 9.76035C67.5659 9.76035 68.0259 9.75368 68.4792 9.74035C68.9459 9.72702 69.3326 9.71368 69.6392 9.70035V10.1004C69.1859 10.1137 68.8392 10.167 68.5992 10.2604C68.3726 10.3404 68.2192 10.5004 68.1392 10.7404C68.0592 10.967 68.0192 11.327 68.0192 11.8204V21.7404C68.0192 22.2204 68.0592 22.5804 68.1392 22.8204C68.2192 23.0604 68.3726 23.2204 68.5992 23.3004C68.8392 23.3804 69.1859 23.4337 69.6392 23.4604V23.8604C69.3326 23.8337 68.9459 23.8204 68.4792 23.8204C68.0259 23.807 67.5659 23.8004 67.0992 23.8004C66.5792 23.8004 66.0926 23.807 65.6392 23.8204C65.1859 23.8204 64.8192 23.8337 64.5392 23.8604ZM67.3192 16.9404V16.5404H75.2192V16.9404H67.3192ZM83.9644 13.2804C84.8177 13.2804 85.5844 13.467 86.2644 13.8404C86.9444 14.2137 87.4844 14.8004 87.8844 15.6004C88.2977 16.4004 88.5044 17.4404 88.5044 18.7204C88.5044 20.0004 88.2977 21.0404 87.8844 21.8404C87.4844 22.627 86.9444 23.207 86.2644 23.5804C85.5844 23.9537 84.8177 24.1404 83.9644 24.1404C83.1244 24.1404 82.3577 23.9537 81.6644 23.5804C80.9844 23.207 80.4377 22.627 80.0244 21.8404C79.6244 21.0404 79.4244 20.0004 79.4244 18.7204C79.4244 17.4404 79.6244 16.4004 80.0244 15.6004C80.4377 14.8004 80.9844 14.2137 81.6644 13.8404C82.3577 13.467 83.1244 13.2804 83.9644 13.2804ZM83.9644 13.6804C83.2044 13.6804 82.5777 14.0737 82.0844 14.8604C81.6044 15.647 81.3644 16.9337 81.3644 18.7204C81.3644 20.507 81.6044 21.7937 82.0844 22.5804C82.5777 23.3537 83.2044 23.7404 83.9644 23.7404C84.7244 23.7404 85.3444 23.3537 85.8244 22.5804C86.3177 21.7937 86.5644 20.507 86.5644 18.7204C86.5644 16.9337 86.3177 15.647 85.8244 14.8604C85.3444 14.0737 84.7244 13.6804 83.9644 13.6804ZM93.2014 13.3404V25.6204C93.2014 26.1937 93.3681 26.5737 93.7014 26.7604C94.0481 26.9604 94.5214 27.0604 95.1214 27.0604V27.4804C94.8281 27.467 94.4214 27.447 93.9014 27.4204C93.3814 27.407 92.8281 27.4004 92.2414 27.4004C91.8281 27.4004 91.4147 27.407 91.0014 27.4204C90.6014 27.447 90.2947 27.467 90.0814 27.4804V27.0604C90.5614 27.0604 90.9014 26.9737 91.1014 26.8004C91.3014 26.627 91.4014 26.3004 91.4014 25.8204V15.7404C91.4014 15.1404 91.2947 14.7004 91.0814 14.4204C90.8681 14.127 90.4681 13.9804 89.8814 13.9804V13.5604C90.3081 13.6004 90.7214 13.6204 91.1214 13.6204C91.5081 13.6204 91.8747 13.6004 92.2214 13.5604C92.5814 13.507 92.9081 13.4337 93.2014 13.3404ZM96.4014 13.2804C97.1081 13.2804 97.7414 13.4737 98.3014 13.8604C98.8614 14.2337 99.3014 14.787 99.6214 15.5204C99.9547 16.2537 100.121 17.1604 100.121 18.2404C100.121 18.9604 100.035 19.6737 99.8614 20.3804C99.6881 21.0737 99.4147 21.707 99.0414 22.2804C98.6814 22.8404 98.2081 23.2937 97.6214 23.6404C97.0481 23.9737 96.3547 24.1404 95.5414 24.1404C94.9147 24.1404 94.3681 23.9937 93.9014 23.7004C93.4481 23.407 93.1414 23.0537 92.9814 22.6404L93.1814 22.3604C93.3681 22.7337 93.6347 23.047 93.9814 23.3004C94.3414 23.5537 94.7881 23.6804 95.3214 23.6804C96.0681 23.6804 96.6481 23.447 97.0614 22.9804C97.4747 22.5137 97.7614 21.8937 97.9214 21.1204C98.0947 20.3337 98.1814 19.467 98.1814 18.5204C98.1814 17.4537 98.0947 16.5804 97.9214 15.9004C97.7481 15.2204 97.4881 14.7137 97.1414 14.3804C96.7947 14.047 96.3681 13.8804 95.8614 13.8804C95.2081 13.8804 94.6147 14.1537 94.0814 14.7004C93.5481 15.2337 93.2081 16.047 93.0614 17.1404L92.8214 16.8604C92.9681 15.727 93.3681 14.847 94.0214 14.2204C94.6881 13.5937 95.4814 13.2804 96.4014 13.2804ZM106.651 9.70035V10.1004C106.198 10.1137 105.851 10.167 105.611 10.2604C105.384 10.3404 105.231 10.5004 105.151 10.7404C105.071 10.967 105.031 11.327 105.031 11.8204V21.7404C105.031 22.2204 105.071 22.5804 105.151 22.8204C105.231 23.0604 105.384 23.2204 105.611 23.3004C105.851 23.3804 106.198 23.4337 106.651 23.4604V23.8604C106.344 23.8337 105.958 23.8204 105.491 23.8204C105.038 23.807 104.578 23.8004 104.111 23.8004C103.591 23.8004 103.104 23.807 102.651 23.8204C102.198 23.8204 101.831 23.8337 101.551 23.8604V23.4604C102.004 23.4337 102.344 23.3804 102.571 23.3004C102.811 23.2204 102.971 23.0604 103.051 22.8204C103.131 22.5804 103.171 22.2204 103.171 21.7404V11.8204C103.171 11.327 103.131 10.967 103.051 10.7404C102.971 10.5004 102.811 10.3404 102.571 10.2604C102.344 10.167 102.004 10.1137 101.551 10.1004V9.70035C101.831 9.71368 102.198 9.72702 102.651 9.74035C103.104 9.75368 103.591 9.76035 104.111 9.76035C104.578 9.76035 105.038 9.75368 105.491 9.74035C105.958 9.72702 106.344 9.71368 106.651 9.70035ZM114.788 13.2804C115.295 13.2804 115.715 13.347 116.048 13.4804C116.395 13.6137 116.682 13.8004 116.908 14.0404C117.162 14.307 117.342 14.6404 117.448 15.0404C117.555 15.4404 117.608 15.9804 117.608 16.6604V22.0004C117.608 22.5604 117.722 22.9404 117.948 23.1404C118.188 23.3404 118.582 23.4404 119.128 23.4404V23.8604C118.902 23.847 118.555 23.8337 118.088 23.8204C117.622 23.7937 117.168 23.7804 116.728 23.7804C116.288 23.7804 115.855 23.7937 115.428 23.8204C115.015 23.8337 114.702 23.847 114.488 23.8604V23.4404C114.968 23.4404 115.308 23.3404 115.508 23.1404C115.708 22.9404 115.808 22.5604 115.808 22.0004V16.2204C115.808 15.807 115.775 15.427 115.708 15.0804C115.642 14.7337 115.488 14.4537 115.248 14.2404C115.022 14.027 114.668 13.9204 114.188 13.9204C113.628 13.9204 113.135 14.0804 112.708 14.4004C112.295 14.7204 111.968 15.1604 111.728 15.7204C111.502 16.267 111.388 16.8804 111.388 17.5604V22.0004C111.388 22.5604 111.488 22.9404 111.688 23.1404C111.888 23.3404 112.228 23.4404 112.708 23.4404V23.8604C112.495 23.847 112.175 23.8337 111.748 23.8204C111.335 23.7937 110.908 23.7804 110.468 23.7804C110.028 23.7804 109.575 23.7937 109.108 23.8204C108.642 23.8337 108.295 23.847 108.068 23.8604V23.4404C108.615 23.4404 109.002 23.3404 109.228 23.1404C109.468 22.9404 109.588 22.5604 109.588 22.0004V15.7404C109.588 15.1404 109.482 14.7004 109.268 14.4204C109.055 14.127 108.655 13.9804 108.068 13.9804V13.5604C108.495 13.6004 108.908 13.6204 109.308 13.6204C109.695 13.6204 110.062 13.6004 110.408 13.5604C110.768 13.507 111.095 13.4337 111.388 13.3404V15.7004C111.735 14.7937 112.215 14.167 112.828 13.8204C113.455 13.4604 114.108 13.2804 114.788 13.2804ZM126.722 13.2804C127.229 13.2804 127.649 13.347 127.982 13.4804C128.329 13.6137 128.615 13.8004 128.842 14.0404C129.095 14.307 129.275 14.6404 129.382 15.0404C129.489 15.4404 129.542 15.9804 129.542 16.6604V22.0004C129.542 22.5604 129.655 22.9404 129.882 23.1404C130.122 23.3404 130.515 23.4404 131.062 23.4404V23.8604C130.835 23.847 130.489 23.8337 130.022 23.8204C129.555 23.7937 129.102 23.7804 128.662 23.7804C128.222 23.7804 127.789 23.7937 127.362 23.8204C126.949 23.8337 126.635 23.847 126.422 23.8604V23.4404C126.902 23.4404 127.242 23.3404 127.442 23.1404C127.642 22.9404 127.742 22.5604 127.742 22.0004V16.2204C127.742 15.807 127.709 15.427 127.642 15.0804C127.575 14.7337 127.422 14.4537 127.182 14.2404C126.955 14.027 126.602 13.9204 126.122 13.9204C125.562 13.9204 125.069 14.0804 124.642 14.4004C124.229 14.7204 123.902 15.1604 123.662 15.7204C123.435 16.267 123.322 16.8804 123.322 17.5604V22.0004C123.322 22.5604 123.422 22.9404 123.622 23.1404C123.822 23.3404 124.162 23.4404 124.642 23.4404V23.8604C124.429 23.847 124.109 23.8337 123.682 23.8204C123.269 23.7937 122.842 23.7804 122.402 23.7804C121.962 23.7804 121.509 23.7937 121.042 23.8204C120.575 23.8337 120.229 23.847 120.002 23.8604V23.4404C120.549 23.4404 120.935 23.3404 121.162 23.1404C121.402 22.9404 121.522 22.5604 121.522 22.0004V15.7404C121.522 15.1404 121.415 14.7004 121.202 14.4204C120.989 14.127 120.589 13.9804 120.002 13.9804V13.5604C120.429 13.6004 120.842 13.6204 121.242 13.6204C121.629 13.6204 121.995 13.6004 122.342 13.5604C122.702 13.507 123.029 13.4337 123.322 13.3404V15.7004C123.669 14.7937 124.149 14.167 124.762 13.8204C125.389 13.4604 126.042 13.2804 126.722 13.2804Z" fill="#FFFCEF"/>
</svg>
